[ConversionWorker] Logging FFmpeg output to: ffmpeg_logs\ffmpeg_conversion_高冷番外_wav_20250525_174454.log\n[ConversionWorker] Getting duration with command: ffprobe -v error -show_entries format=duration -of default=noprint_wrappers=1:nokey=1 Z:\Story\高冷\高冷番外.wav\n[ConversionWorker] Duration for 高冷番外.wav: 10093530 ms\n[ConversionWorker] Starting FFmpeg for 高冷番外.wav: ffmpeg -i Z:\Story\高冷\高冷番外.wav -b:a 128k -vn -y -loglevel error -stats -progress pipe:1 Z:\Story\高冷\高冷番外.mp3\n[ConversionWorker] FFmpeg process started. PID: 27476\n[STDOUT RAW] bitrate= 123.8kbits/s\n[STDOUT RAW] total_size=79532\n[STDOUT RAW] out_time_us=5137958\n[STDOUT RAW] out_time_ms=5137958\n[STDOUT RAW] out_time=00:00:05.137958\n[STDOUT RAW] dup_frames=0\n[STDOUT RAW] drop_frames=0\n[STDOUT RAW] speed= 9.7x\n[STDOUT RAW] progress=continue\n[STDERR RAW] size=      78KiB time=00:00:05.13 bitrate= 123.8kbits/s speed= 9.7x\n[STDOUT RAW] bitrate= 125.8kbits/s\n[STDOUT RAW] total_size=154028\n[STDOUT RAW] out_time_us=9793958\n[STDOUT RAW] out_time_ms=9793958\n[STDOUT RAW] out_time=00:00:09.793958\n[STDOUT RAW] dup_frames=0\n[STDOUT RAW] drop_frames=0\n[STDOUT RAW] speed= 9.4x\n[STDOUT RAW] progress=continue\n[STDERR RAW] size=     150KiB time=00:00:09.79 bitrate= 125.8kbits/s speed= 9.4x\n[STDOUT RAW] bitrate= 126.5kbits/s\n[STDOUT RAW] total_size=228908\n[STDOUT RAW] out_time_us=14473958\n[STDOUT RAW] out_time_ms=14473958\n[STDOUT RAW] out_time=00:00:14.473958\n[STDOUT RAW] dup_frames=0\n[STDOUT RAW] drop_frames=0\n[STDOUT RAW] speed=9.33x\n[STDOUT RAW] progress=continue\n[STDERR RAW] size=     224KiB time=00:00:14.47 bitrate= 126.5kbits/s speed=9.33x\n[STDOUT RAW] bitrate= 124.9kbits/s\n[STDOUT RAW] total_size=1310720\n[STDOUT RAW] out_time_us=83929958\n[STDOUT RAW] out_time_ms=83929958\n[STDOUT RAW] out_time=00:01:23.929958\n[STDOUT RAW] dup_frames=0\n[STDOUT RAW] drop_frames=0\n[STDOUT RAW] speed=40.4x\n[STDOUT RAW] progress=continue\n[STDERR RAW] size=    1280KiB time=00:01:23.92 bitrate= 124.9kbits/s speed=40.4x\n[STDOUT RAW] bitrate= 117.4kbits/s\n[STDOUT RAW] total_size=2883584\n[STDOUT RAW] out_time_us=196561958\n[STDOUT RAW] out_time_ms=196561958\n[STDOUT RAW] out_time=00:03:16.561958\n[STDOUT RAW] dup_frames=0\n[STDOUT RAW] drop_frames=0\n[STDOUT RAW] speed=  76x\n[STDOUT RAW] progress=continue\n[STDERR RAW] size=    2816KiB time=00:03:16.56 bitrate= 117.4kbits/s speed=  76x\n[STDOUT RAW] bitrate= 122.8kbits/s\n[STDOUT RAW] total_size=4718592\n[STDOUT RAW] out_time_us=307465958\n[STDOUT RAW] out_time_ms=307465958\n[STDOUT RAW] out_time=00:05:07.465958\n[STDOUT RAW] dup_frames=0\n[STDOUT RAW] drop_frames=0\n[STDOUT RAW] speed=99.1x\n[STDOUT RAW] progress=continue\n[STDERR RAW] size=    4608KiB time=00:05:07.46 bitrate= 122.8kbits/s speed=99.1x\n[STDOUT RAW] bitrate= 125.0kbits/s\n[STDOUT RAW] total_size=6553600\n[STDOUT RAW] out_time_us=419425958\n[STDOUT RAW] out_time_ms=419425958\n[STDOUT RAW] out_time=00:06:59.425958\n[STDOUT RAW] dup_frames=0\n[STDOUT RAW] drop_frames=0\n[STDOUT RAW] speed= 116x\n[STDOUT RAW] progress=continue\n[STDERR RAW] size=    6400KiB time=00:06:59.42 bitrate= 125.0kbits/s speed= 116x\n[STDOUT RAW] bitrate= 125.7kbits/s\n[STDOUT RAW] total_size=8388608\n[STDOUT RAW] out_time_us=533761958\n[STDOUT RAW] out_time_ms=533761958\n[STDOUT RAW] out_time=00:08:53.761958\n[STDOUT RAW] dup_frames=0\n[STDOUT RAW] drop_frames=0\n[STDOUT RAW] speed= 129x\n[STDOUT RAW] progress=continue\n[STDERR RAW] size=    8192KiB time=00:08:53.76 bitrate= 125.7kbits/s speed= 129x\n[STDOUT RAW] bitrate= 126.7kbits/s\n[STDOUT RAW] total_size=10223616\n[STDOUT RAW] out_time_us=645409958\n[STDOUT RAW] out_time_ms=645409958\n[STDOUT RAW] out_time=00:10:45.409958\n[STDOUT RAW] dup_frames=0\n[STDOUT RAW] drop_frames=0\n[STDOUT RAW] speed= 139x\n[STDOUT RAW] progress=continue\n[STDERR RAW] size=    9984KiB time=00:10:45.40 bitrate= 126.7kbits/s speed= 139x\n[STDOUT RAW] bitrate= 126.6kbits/s\n[STDOUT RAW] total_size=12058624\n[STDOUT RAW] out_time_us=761761958\n[STDOUT RAW] out_time_ms=761761958\n[STDOUT RAW] out_time=00:12:41.761958\n[STDOUT RAW] dup_frames=0\n[STDOUT RAW] drop_frames=0\n[STDOUT RAW] speed= 147x\n[STDOUT RAW] progress=continue\n[STDOUT RAW] bitrate= 127.4kbits/s\n[STDOUT RAW] total_size=13893632\n[STDOUT RAW] out_time_us=872233958\n[STDERR RAW] size=   11776KiB time=00:12:41.76 bitrate= 126.6kbits/s speed= 147x\n[STDOUT RAW] out_time_ms=872233958\n[STDOUT RAW] out_time=00:14:32.233958\n[STDOUT RAW] dup_frames=0\n[STDOUT RAW] drop_frames=0\n[STDOUT RAW] speed= 153x\n[STDOUT RAW] progress=continue\n[STDERR RAW] size=   13568KiB time=00:14:32.23 bitrate= 127.4kbits/s speed= 153x\n[STDOUT RAW] bitrate= 127.5kbits/s\n[STDOUT RAW] total_size=15728640\n[STDOUT RAW] out_time_us=986641958\n[STDOUT RAW] out_time_ms=986641958\n[STDOUT RAW] out_time=00:16:26.641958\n[STDOUT RAW] dup_frames=0\n[STDOUT RAW] drop_frames=0\n[STDOUT RAW] speed= 159x\n[STDOUT RAW] progress=continue\n[STDERR RAW] size=   15360KiB time=00:16:26.64 bitrate= 127.5kbits/s speed= 159x\n[STDOUT RAW] bitrate= 126.8kbits/s\n[STDOUT RAW] total_size=17301504\n[STDOUT RAW] out_time_us=1091449958\n[STDOUT RAW] out_time_ms=1091449958\n[STDOUT RAW] out_time=00:18:11.449958\n[STDOUT RAW] dup_frames=0\n[STDOUT RAW] drop_frames=0\n[STDOUT RAW] speed= 163x\n[STDOUT RAW] progress=continue\n[STDERR RAW] size=   16896KiB time=00:18:11.44 bitrate= 126.8kbits/s speed= 163x\n[STDOUT RAW] bitrate= 126.5kbits/s\n[STDOUT RAW] total_size=18874368\n[STDOUT RAW] out_time_us=1193905958\n[STDOUT RAW] out_time_ms=1193905958\n[STDOUT RAW] out_time=00:19:53.905958\n[STDOUT RAW] dup_frames=0\n[STDOUT RAW] drop_frames=0\n[STDOUT RAW] speed= 165x\n[STDOUT RAW] progress=continue\n[STDERR RAW] size=   18432KiB time=00:19:53.90 bitrate= 126.5kbits/s speed= 165x\n[STDOUT RAW] bitrate= 126.3kbits/s\n[STDOUT RAW] total_size=20185088\n[STDOUT RAW] out_time_us=1278073958\n[STDOUT RAW] out_time_ms=1278073958\n[STDOUT RAW] out_time=00:21:18.073958\n[STDOUT RAW] dup_frames=0\n[STDOUT RAW] drop_frames=0\n[STDOUT RAW] speed= 165x\n[STDOUT RAW] progress=continue\n[STDOUT RAW] bitrate= 127.5kbits/s\n[STDERR RAW] size=   19712KiB time=00:21:18.07 bitrate= 126.3kbits/s speed= 165x\n[STDOUT RAW] total_size=21233664\n[STDOUT RAW] out_time_us=1331881958\n[STDOUT RAW] out_time_ms=1331881958\n[STDOUT RAW] out_time=00:22:11.881958\n[STDOUT RAW] dup_frames=0\n[STDOUT RAW] drop_frames=0\n[STDOUT RAW] speed= 161x\n[STDOUT RAW] progress=continue\n[STDERR RAW] size=   20736KiB time=00:22:11.88 bitrate= 127.5kbits/s speed= 161x\n[STDOUT RAW] bitrate= 126.6kbits/s\n[STDOUT RAW] total_size=23068672\n[STDOUT RAW] out_time_us=1457473958\n[STDOUT RAW] out_time_ms=1457473958\n[STDOUT RAW] out_time=00:24:17.473958\n[STDOUT RAW] dup_frames=0\n[STDOUT RAW] drop_frames=0\n[STDOUT RAW] speed= 166x\n[STDOUT RAW] progress=continue\n[STDERR RAW] size=   22528KiB time=00:24:17.47 bitrate= 126.6kbits/s speed= 166x\n[STDOUT RAW] bitrate= 126.8kbits/s\n[STDOUT RAW] total_size=24903680\n[STDOUT RAW] out_time_us=1571809958\n[STDOUT RAW] out_time_ms=1571809958\n[STDOUT RAW] out_time=00:26:11.809958\n[STDOUT RAW] dup_frames=0\n[STDOUT RAW] drop_frames=0\n[STDOUT RAW] speed= 169x\n[STDOUT RAW] progress=continue\n[STDOUT RAW] bitrate= 126.7kbits/s\n[STDOUT RAW] total_size=26476544\n[STDOUT RAW] out_time_us=1671241958\n[STDERR RAW] size=   24320KiB time=00:26:11.80 bitrate= 126.8kbits/s speed= 169x\n[STDOUT RAW] out_time_ms=1671241958\n[STDOUT RAW] out_time=00:27:51.241958\n[STDOUT RAW] dup_frames=0\n[STDOUT RAW] drop_frames=0\n[STDOUT RAW] speed= 170x\n[STDOUT RAW] progress=continue\n[STDOUT RAW] bitrate= 127.8kbits/s\n[STDOUT RAW] total_size=28311552\n[STDERR RAW] size=   25856KiB time=00:27:51.24 bitrate= 126.7kbits/s speed= 170x\n[STDOUT RAW] out_time_us=1772857958\n[STDOUT RAW] out_time_ms=1772857958\n[STDOUT RAW] out_time=00:29:32.857958\n[STDOUT RAW] dup_frames=0\n[STDOUT RAW] drop_frames=0\n[STDOUT RAW] speed= 172x\n[STDOUT RAW] progress=continue\n[STDERR RAW] size=   27648KiB time=00:29:32.85 bitrate= 127.8kbits/s speed= 172x\n[STDOUT RAW] bitrate= 127.2kbits/s\n[STDOUT RAW] total_size=29884416\n[STDOUT RAW] out_time_us=1880257958\n[STDOUT RAW] out_time_ms=1880257958\n[STDOUT RAW] out_time=00:31:20.257958\n[STDOUT RAW] dup_frames=0\n[STDOUT RAW] drop_frames=0\n[STDOUT RAW] speed= 173x\n[STDOUT RAW] progress=continue\n[STDERR RAW] size=   29184KiB time=00:31:20.25 bitrate= 127.2kbits/s speed= 173x\n[STDOUT RAW] bitrate= 127.2kbits/s\n[STDOUT RAW] total_size=31719424\n[STDOUT RAW] out_time_us=1995601958\n[STDOUT RAW] out_time_ms=1995601958\n[STDOUT RAW] out_time=00:33:15.601958\n[STDOUT RAW] dup_frames=0\n[STDOUT RAW] drop_frames=0\n[STDOUT RAW] speed= 176x\n[STDOUT RAW] progress=continue\n[STDERR RAW] size=   30976KiB time=00:33:15.60 bitrate= 127.2kbits/s speed= 176x\n[STDOUT RAW] bitrate= 127.8kbits/s\n[STDOUT RAW] total_size=33816576\n[STDOUT RAW] out_time_us=2116561958\n[STDOUT RAW] out_time_ms=2116561958\n[STDOUT RAW] out_time=00:35:16.561958\n[STDOUT RAW] dup_frames=0\n[STDOUT RAW] drop_frames=0\n[STDOUT RAW] speed= 178x\n[STDOUT RAW] progress=continue\n[STDERR RAW] size=   33024KiB time=00:35:16.56 bitrate= 127.8kbits/s speed= 178x\n[STDOUT RAW] bitrate= 127.1kbits/s\n[STDOUT RAW] total_size=35389440\n[STDOUT RAW] out_time_us=2228353958\n[STDOUT RAW] out_time_ms=2228353958\n[STDOUT RAW] out_time=00:37:08.353958\n[STDOUT RAW] dup_frames=0\n[STDOUT RAW] drop_frames=0\n[STDOUT RAW] speed= 180x\n[STDOUT RAW] progress=continue\n[STDERR RAW] size=   34560KiB time=00:37:08.35 bitrate= 127.1kbits/s speed= 180x\n[STDOUT RAW] bitrate= 127.3kbits/s\n[STDOUT RAW] total_size=37224448\n[STDOUT RAW] out_time_us=2339137958\n[STDOUT RAW] out_time_ms=2339137958\n[STDOUT RAW] out_time=00:38:59.137958\n[STDOUT RAW] dup_frames=0\n[STDOUT RAW] drop_frames=0\n[STDOUT RAW] speed= 181x\n[STDOUT RAW] progress=continue\n[STDERR RAW] size=   36352KiB time=00:38:59.13 bitrate= 127.3kbits/s speed= 181x\n[STDOUT RAW] bitrate= 127.3kbits/s\n[STDOUT RAW] total_size=38797312\n[STDOUT RAW] out_time_us=2439049958\n[STDOUT RAW] out_time_ms=2439049958\n[STDOUT RAW] out_time=00:40:39.049958\n[STDOUT RAW] dup_frames=0\n[STDOUT RAW] drop_frames=0\n[STDOUT RAW] speed= 182x\n[STDOUT RAW] progress=continue\n[STDERR RAW] size=   37888KiB time=00:40:39.04 bitrate= 127.3kbits/s speed= 182x\n[STDOUT RAW] bitrate= 127.4kbits/s\n[STDOUT RAW] total_size=40632320\n[STDOUT RAW] out_time_us=2551993958\n[STDOUT RAW] out_time_ms=2551993958\n[STDOUT RAW] out_time=00:42:31.993958\n[STDOUT RAW] dup_frames=0\n[STDOUT RAW] drop_frames=0\n[STDOUT RAW] speed= 183x\n[STDOUT RAW] progress=continue\n[STDERR RAW] size=   39680KiB time=00:42:31.99 bitrate= 127.4kbits/s speed= 183x\n[STDOUT RAW] bitrate= 127.6kbits/s\n[STDOUT RAW] total_size=42467328\n[STDOUT RAW] out_time_us=2662393958\n[STDOUT RAW] out_time_ms=2662393958\n[STDOUT RAW] out_time=00:44:22.393958\n[STDOUT RAW] dup_frames=0\n[STDOUT RAW] drop_frames=0\n[STDOUT RAW] speed= 184x\n[STDOUT RAW] progress=continue\n[STDERR RAW] size=   41472KiB time=00:44:22.39 bitrate= 127.6kbits/s speed= 184x\n[STDOUT RAW] bitrate= 127.5kbits/s\n[STDOUT RAW] total_size=44040192\n[STDOUT RAW] out_time_us=2764009958\n[STDOUT RAW] out_time_ms=2764009958\n[STDOUT RAW] out_time=00:46:04.009958\n[STDOUT RAW] dup_frames=0\n[STDOUT RAW] drop_frames=0\n[STDOUT RAW] speed= 185x\n[STDOUT RAW] progress=continue\n[STDERR RAW] size=   43008KiB time=00:46:04.00 bitrate= 127.5kbits/s speed= 185x\n[STDOUT RAW] bitrate= 127.5kbits/s\n[STDOUT RAW] total_size=45875200\n[STDOUT RAW] out_time_us=2877577958\n[STDOUT RAW] out_time_ms=2877577958\n[STDOUT RAW] out_time=00:47:57.577958\n[STDOUT RAW] dup_frames=0\n[STDOUT RAW] drop_frames=0\n[STDOUT RAW] speed= 186x\n[STDOUT RAW] progress=continue\n[STDERR RAW] size=   44800KiB time=00:47:57.57 bitrate= 127.5kbits/s speed= 186x\n[STDOUT RAW] bitrate= 127.6kbits/s\n[STDOUT RAW] total_size=47710208\n[STDOUT RAW] out_time_us=2990425958\n[STDOUT RAW] out_time_ms=2990425958\n[STDOUT RAW] out_time=00:49:50.425958\n[STDOUT RAW] dup_frames=0\n[STDOUT RAW] drop_frames=0\n[STDOUT RAW] speed= 187x\n[STDOUT RAW] progress=continue\n[STDERR RAW] size=   46592KiB time=00:49:50.42 bitrate= 127.6kbits/s speed= 187x\n[STDOUT RAW] bitrate= 127.4kbits/s\n[STDOUT RAW] total_size=49545216\n[STDOUT RAW] out_time_us=3110089958\n[STDOUT RAW] out_time_ms=3110089958\n[STDOUT RAW] out_time=00:51:50.089958\n[STDOUT RAW] dup_frames=0\n[STDOUT RAW] drop_frames=0\n[STDOUT RAW] speed= 188x\n[STDOUT RAW] progress=continue\n[STDERR RAW] size=   48384KiB time=00:51:50.08 bitrate= 127.4kbits/s speed= 188x\n[STDOUT RAW] bitrate= 127.7kbits/s\n[STDOUT RAW] total_size=51380224\n[STDOUT RAW] out_time_us=3217633958\n[STDOUT RAW] out_time_ms=3217633958\n[STDOUT RAW] out_time=00:53:37.633958\n[STDOUT RAW] dup_frames=0\n[STDOUT RAW] drop_frames=0\n[STDOUT RAW] speed= 189x\n[STDOUT RAW] progress=continue\n[STDERR RAW] size=   50176KiB time=00:53:37.63 bitrate= 127.7kbits/s speed= 189x\n[STDOUT RAW] bitrate= 127.6kbits/s\n[STDOUT RAW] total_size=53215232\n[STDOUT RAW] out_time_us=3335977958\n[STDOUT RAW] out_time_ms=3335977958\n[STDOUT RAW] out_time=00:55:35.977958\n[STDOUT RAW] dup_frames=0\n[STDOUT RAW] drop_frames=0\n[STDOUT RAW] speed= 190x\n[STDOUT RAW] progress=continue\n[STDERR RAW] size=   51968KiB time=00:55:35.97 bitrate= 127.6kbits/s speed= 190x\n[STDOUT RAW] bitrate= 127.8kbits/s\n[STDOUT RAW] total_size=55050240\n[STDOUT RAW] out_time_us=3446065958\n[STDOUT RAW] out_time_ms=3446065958\n[STDOUT RAW] out_time=00:57:26.065958\n[STDOUT RAW] dup_frames=0\n[STDOUT RAW] drop_frames=0\n[STDOUT RAW] speed= 191x\n[STDOUT RAW] progress=continue\n[STDERR RAW] size=   53760KiB time=00:57:26.06 bitrate= 127.8kbits/s speed= 191x\n[STDOUT RAW] bitrate= 127.5kbits/s\n[STDOUT RAW] total_size=56623104\n[STDOUT RAW] out_time_us=3553681958\n[STDOUT RAW] out_time_ms=3553681958\n[STDOUT RAW] out_time=00:59:13.681958\n[STDOUT RAW] dup_frames=0\n[STDOUT RAW] drop_frames=0\n[STDOUT RAW] speed= 191x\n[STDOUT RAW] progress=continue\n[STDERR RAW] size=   55296KiB time=00:59:13.68 bitrate= 127.5kbits/s speed= 191x\n[STDOUT RAW] bitrate= 127.7kbits/s\n[STDOUT RAW] total_size=58458112\n[STDOUT RAW] out_time_us=3661057958\n[STDOUT RAW] out_time_ms=3661057958\n[STDOUT RAW] out_time=01:01:01.057958\n[STDOUT RAW] dup_frames=0\n[STDOUT RAW] drop_frames=0\n[STDOUT RAW] speed= 192x\n[STDOUT RAW] progress=continue\n[STDERR RAW] size=   57088KiB time=01:01:01.05 bitrate= 127.7kbits/s speed= 192x\n[STDOUT RAW] bitrate= 127.9kbits/s\n[STDOUT RAW] total_size=60293120\n[STDOUT RAW] out_time_us=3771817958\n[STDOUT RAW] out_time_ms=3771817958\n[STDOUT RAW] out_time=01:02:51.817958\n[STDOUT RAW] dup_frames=0\n[STDOUT RAW] drop_frames=0\n[STDOUT RAW] speed= 192x\n[STDOUT RAW] progress=continue\n[STDERR RAW] size=   58880KiB time=01:02:51.81 bitrate= 127.9kbits/s speed= 192x\n[STDOUT RAW] bitrate= 127.5kbits/s\n[STDOUT RAW] total_size=61865984\n[STDOUT RAW] out_time_us=3881473958\n[STDOUT RAW] out_time_ms=3881473958\n[STDOUT RAW] out_time=01:04:41.473958\n[STDOUT RAW] dup_frames=0\n[STDOUT RAW] drop_frames=0\n[STDOUT RAW] speed= 193x\n[STDOUT RAW] progress=continue\n[STDERR RAW] size=   60416KiB time=01:04:41.47 bitrate= 127.5kbits/s speed= 193x\n[STDOUT RAW] bitrate= 127.8kbits/s\n[STDOUT RAW] total_size=63700992\n[STDOUT RAW] out_time_us=3988033958\n[STDOUT RAW] out_time_ms=3988033958\n[STDOUT RAW] out_time=01:06:28.033958\n[STDOUT RAW] dup_frames=0\n[STDOUT RAW] drop_frames=0\n[STDOUT RAW] speed= 193x\n[STDOUT RAW] progress=continue\n[STDERR RAW] size=   62208KiB time=01:06:28.03 bitrate= 127.8kbits/s speed= 193x\n[STDOUT RAW] bitrate= 127.5kbits/s\n[STDOUT RAW] total_size=65273856\n[STDOUT RAW] out_time_us=4095025958\n[STDOUT RAW] out_time_ms=4095025958\n[STDOUT RAW] out_time=01:08:15.025958\n[STDOUT RAW] dup_frames=0\n[STDOUT RAW] drop_frames=0\n[STDOUT RAW] speed= 194x\n[STDOUT RAW] progress=continue\n[STDERR RAW] size=   63744KiB time=01:08:15.02 bitrate= 127.5kbits/s speed= 194x\n[STDOUT RAW] bitrate= 127.9kbits/s\n[STDOUT RAW] total_size=67108864\n[STDOUT RAW] out_time_us=4197841958\n[STDOUT RAW] out_time_ms=4197841958\n[STDOUT RAW] out_time=01:09:57.841958\n[STDOUT RAW] dup_frames=0\n[STDOUT RAW] drop_frames=0\n[STDOUT RAW] speed= 194x\n[STDOUT RAW] progress=continue\n[STDERR RAW] size=   65536KiB time=01:09:57.84 bitrate= 127.9kbits/s speed= 194x\n[STDOUT RAW] bitrate= 127.8kbits/s\n[STDOUT RAW] total_size=68681728\n[STDOUT RAW] out_time_us=4300681958\n[STDOUT RAW] out_time_ms=4300681958\n[STDOUT RAW] out_time=01:11:40.681958\n[STDOUT RAW] dup_frames=0\n[STDOUT RAW] drop_frames=0\n[STDOUT RAW] speed= 194x\n[STDOUT RAW] progress=continue\n[STDERR RAW] size=   67072KiB time=01:11:40.68 bitrate= 127.8kbits/s speed= 194x\n[STDOUT RAW] bitrate= 127.5kbits/s\n[STDOUT RAW] total_size=70254592\n[STDOUT RAW] out_time_us=4407049958\n[STDOUT RAW] out_time_ms=4407049958\n[STDOUT RAW] out_time=01:13:27.049958\n[STDOUT RAW] dup_frames=0\n[STDOUT RAW] drop_frames=0\n[STDOUT RAW] speed= 194x\n[STDOUT RAW] progress=continue\n[STDERR RAW] size=   68608KiB time=01:13:27.04 bitrate= 127.5kbits/s speed= 194x\n[STDOUT RAW] bitrate= 127.7kbits/s\n[STDOUT RAW] total_size=71827456\n[STDOUT RAW] out_time_us=4500865958\n[STDOUT RAW] out_time_ms=4500865958\n[STDOUT RAW] out_time=01:15:00.865958\n[STDOUT RAW] dup_frames=0\n[STDOUT RAW] drop_frames=0\n[STDOUT RAW] speed= 194x\n[STDOUT RAW] progress=continue\n[STDERR RAW] size=   70144KiB time=01:15:00.86 bitrate= 127.7kbits/s speed= 194x\n[STDOUT RAW] bitrate= 127.5kbits/s\n[STDOUT RAW] total_size=73400320\n[STDOUT RAW] out_time_us=4603801958\n[STDOUT RAW] out_time_ms=4603801958\n[STDOUT RAW] out_time=01:16:43.801958\n[STDOUT RAW] dup_frames=0\n[STDOUT RAW] drop_frames=0\n[STDOUT RAW] speed= 194x\n[STDOUT RAW] progress=continue\n[STDERR RAW] size=   71680KiB time=01:16:43.80 bitrate= 127.5kbits/s speed= 194x\n[STDOUT RAW] bitrate= 127.9kbits/s\n[STDOUT RAW] total_size=75235328\n[STDOUT RAW] out_time_us=4704385958\n[STDOUT RAW] out_time_ms=4704385958\n[STDOUT RAW] out_time=01:18:24.385958\n[STDOUT RAW] dup_frames=0\n[STDOUT RAW] drop_frames=0\n[STDOUT RAW] speed= 194x\n[STDOUT RAW] progress=continue\n[STDOUT RAW] bitrate= 127.9kbits/s\n[STDERR RAW] size=   73472KiB time=01:18:24.38 bitrate= 127.9kbits/s speed= 194x\n[STDOUT RAW] total_size=76808192\n[STDOUT RAW] out_time_us=4803145958\n[STDOUT RAW] out_time_ms=4803145958\n[STDOUT RAW] out_time=01:20:03.145958\n[STDOUT RAW] dup_frames=0\n[STDOUT RAW] drop_frames=0\n[STDOUT RAW] speed= 194x\n[STDOUT RAW] progress=continue\n[STDERR RAW] size=   75008KiB time=01:20:03.14 bitrate= 127.9kbits/s speed= 194x\n[STDOUT RAW] bitrate= 127.6kbits/s\n[STDOUT RAW] total_size=78118912\n[STDOUT RAW] out_time_us=4898953958\n[STDOUT RAW] out_time_ms=4898953958\n[STDOUT RAW] out_time=01:21:38.953958\n[STDOUT RAW] dup_frames=0\n[STDOUT RAW] drop_frames=0\n[STDOUT RAW] speed= 194x\n[STDOUT RAW] progress=continue\n[STDERR RAW] size=   76288KiB time=01:21:38.95 bitrate= 127.6kbits/s speed= 194x\n[STDOUT RAW] bitrate= 127.6kbits/s\n[STDOUT RAW] total_size=79691776\n[STDOUT RAW] out_time_us=4995961958\n[STDOUT RAW] out_time_ms=4995961958\n[STDOUT RAW] out_time=01:23:15.961958\n[STDOUT RAW] dup_frames=0\n[STDOUT RAW] drop_frames=0\n[STDOUT RAW] speed= 194x\n[STDOUT RAW] progress=continue\n[STDERR RAW] size=   77824KiB time=01:23:15.96 bitrate= 127.6kbits/s speed= 194x\n[STDOUT RAW] bitrate= 128.0kbits/s\n[STDOUT RAW] total_size=81526784\n[STDOUT RAW] out_time_us=5096281958\n[STDOUT RAW] out_time_ms=5096281958\n[STDOUT RAW] out_time=01:24:56.281958\n[STDOUT RAW] dup_frames=0\n[STDOUT RAW] drop_frames=0\n[STDOUT RAW] speed= 194x\n[STDOUT RAW] progress=continue\n[STDERR RAW] size=   79616KiB time=01:24:56.28 bitrate= 128.0kbits/s speed= 194x\n[STDOUT RAW] bitrate= 127.9kbits/s\n[STDOUT RAW] total_size=83361792\n[STDOUT RAW] out_time_us=5213545958\n[STDOUT RAW] out_time_ms=5213545958\n[STDOUT RAW] out_time=01:26:53.545958\n[STDOUT RAW] dup_frames=0\n[STDOUT RAW] drop_frames=0\n[STDOUT RAW] speed= 194x\n[STDOUT RAW] progress=continue\n[STDERR RAW] size=   81408KiB time=01:26:53.54 bitrate= 127.9kbits/s speed= 194x\n[STDOUT RAW] bitrate= 127.8kbits/s\n[STDOUT RAW] total_size=85196800\n[STDOUT RAW] out_time_us=5334937958\n[STDOUT RAW] out_time_ms=5334937958\n[STDOUT RAW] out_time=01:28:54.937958\n[STDOUT RAW] dup_frames=0\n[STDOUT RAW] drop_frames=0\n[STDOUT RAW] speed= 195x\n[STDOUT RAW] progress=continue\n[STDERR RAW] size=   83200KiB time=01:28:54.93 bitrate= 127.8kbits/s speed= 195x\n[STDOUT RAW] bitrate= 127.7kbits/s\n[STDOUT RAW] total_size=87031808\n[STDOUT RAW] out_time_us=5451289958\n[STDOUT RAW] out_time_ms=5451289958\n[STDOUT RAW] out_time=01:30:51.289958\n[STDOUT RAW] dup_frames=0\n[STDOUT RAW] drop_frames=0\n[STDOUT RAW] speed= 196x\n[STDOUT RAW] progress=continue\n[STDERR RAW] size=   84992KiB time=01:30:51.28 bitrate= 127.7kbits/s speed= 196x\n[STDOUT RAW] bitrate= 127.7kbits/s\n[STDOUT RAW] total_size=88866816\n[STDOUT RAW] out_time_us=5565481958\n[STDOUT RAW] out_time_ms=5565481958\n[STDOUT RAW] out_time=01:32:45.481958\n[STDOUT RAW] dup_frames=0\n[STDOUT RAW] drop_frames=0\n[STDOUT RAW] speed= 196x\n[STDOUT RAW] progress=continue\n[STDERR RAW] size=   86784KiB time=01:32:45.48 bitrate= 127.7kbits/s speed= 196x\n[STDOUT RAW] bitrate= 127.9kbits/s\n[STDOUT RAW] total_size=90701824\n[STDOUT RAW] out_time_us=5673913958\n[STDOUT RAW] out_time_ms=5673913958\n[STDOUT RAW] out_time=01:34:33.913958\n[STDOUT RAW] dup_frames=0\n[STDOUT RAW] drop_frames=0\n[STDOUT RAW] speed= 196x\n[STDOUT RAW] progress=continue\n[STDERR RAW] size=   88576KiB time=01:34:33.91 bitrate= 127.9kbits/s speed= 196x\n[STDOUT RAW] bitrate= 127.8kbits/s\n[STDOUT RAW] total_size=92536832\n[STDOUT RAW] out_time_us=5790697958\n[STDOUT RAW] out_time_ms=5790697958\n[STDOUT RAW] out_time=01:36:30.697958\n[STDOUT RAW] dup_frames=0\n[STDOUT RAW] drop_frames=0\n[STDOUT RAW] speed= 197x\n[STDOUT RAW] progress=continue\n[STDERR RAW] size=   90368KiB time=01:36:30.69 bitrate= 127.8kbits/s speed= 197x\n[STDOUT RAW] bitrate= 127.7kbits/s\n[STDOUT RAW] total_size=94109696\n[STDOUT RAW] out_time_us=5896945958\n[STDOUT RAW] out_time_ms=5896945958\n[STDOUT RAW] out_time=01:38:16.945958\n[STDOUT RAW] dup_frames=0\n[STDOUT RAW] drop_frames=0\n[STDOUT RAW] speed= 197x\n[STDOUT RAW] progress=continue\n[STDERR RAW] size=   91904KiB time=01:38:16.94 bitrate= 127.7kbits/s speed= 197x\n[STDOUT RAW] bitrate= 127.9kbits/s\n[STDOUT RAW] total_size=95944704\n[STDOUT RAW] out_time_us=6003457958\n[STDOUT RAW] out_time_ms=6003457958\n[STDOUT RAW] out_time=01:40:03.457958\n[STDOUT RAW] dup_frames=0\n[STDOUT RAW] drop_frames=0\n[STDOUT RAW] speed= 197x\n[STDOUT RAW] progress=continue\n[STDERR RAW] size=   93696KiB time=01:40:03.45 bitrate= 127.9kbits/s speed= 197x\n[STDOUT RAW] bitrate= 128.0kbits/s\n[STDOUT RAW] total_size=97517568\n[STDOUT RAW] out_time_us=6095857958\n[STDOUT RAW] out_time_ms=6095857958\n[STDOUT RAW] out_time=01:41:35.857958\n[STDOUT RAW] dup_frames=0\n[STDOUT RAW] drop_frames=0\n[STDOUT RAW] speed= 197x\n[STDOUT RAW] progress=continue\n[STDERR RAW] size=   95232KiB time=01:41:35.85 bitrate= 128.0kbits/s speed= 197x\n[STDOUT RAW] bitrate= 127.7kbits/s\n[STDOUT RAW] total_size=99090432\n[STDOUT RAW] out_time_us=6209665958\n[STDOUT RAW] out_time_ms=6209665958\n[STDOUT RAW] out_time=01:43:29.665958\n[STDOUT RAW] dup_frames=0\n[STDOUT RAW] drop_frames=0\n[STDOUT RAW] speed= 197x\n[STDOUT RAW] progress=continue\n[STDERR RAW] size=   96768KiB time=01:43:29.66 bitrate= 127.7kbits/s speed= 197x\n[STDOUT RAW] bitrate= 127.7kbits/s\n[STDOUT RAW] total_size=100925440\n[STDOUT RAW] out_time_us=6324361958\n[STDOUT RAW] out_time_ms=6324361958\n[STDOUT RAW] out_time=01:45:24.361958\n[STDOUT RAW] dup_frames=0\n[STDOUT RAW] drop_frames=0\n[STDOUT RAW] speed= 198x\n[STDOUT RAW] progress=continue\n[STDERR RAW] size=   98560KiB time=01:45:24.36 bitrate= 127.7kbits/s speed= 198x\n[STDOUT RAW] bitrate= 127.7kbits/s\n[STDOUT RAW] total_size=102760448\n[STDOUT RAW] out_time_us=6436561958\n[STDOUT RAW] out_time_ms=6436561958\n[STDOUT RAW] out_time=01:47:16.561958\n[STDOUT RAW] dup_frames=0\n[STDOUT RAW] drop_frames=0\n[STDOUT RAW] speed= 198x\n[STDOUT RAW] progress=continue\n[STDERR RAW] size=  100352KiB time=01:47:16.56 bitrate= 127.7kbits/s speed= 198x\n[STDOUT RAW] bitrate= 127.7kbits/s\n[STDOUT RAW] total_size=104595456\n[STDOUT RAW] out_time_us=6550369958\n[STDOUT RAW] out_time_ms=6550369958\n[STDOUT RAW] out_time=01:49:10.369958\n[STDOUT RAW] dup_frames=0\n[STDOUT RAW] drop_frames=0\n[STDOUT RAW] speed= 198x\n[STDOUT RAW] progress=continue\n[STDERR RAW] size=  102144KiB time=01:49:10.36 bitrate= 127.7kbits/s speed= 198x\n[STDOUT RAW] bitrate= 127.7kbits/s\n[STDOUT RAW] total_size=105644032\n[STDOUT RAW] out_time_us=6617689958\n[STDOUT RAW] out_time_ms=6617689958\n[STDOUT RAW] out_time=01:50:17.689958\n[STDOUT RAW] dup_frames=0\n[STDOUT RAW] drop_frames=0\n[STDOUT RAW] speed= 197x\n[STDOUT RAW] progress=continue\n[STDERR RAW] size=  103168KiB time=01:50:17.68 bitrate= 127.7kbits/s speed= 197x\n[STDOUT RAW] bitrate= 127.7kbits/s\n[STDOUT RAW] total_size=107741184\n[STDOUT RAW] out_time_us=6747697958\n[STDOUT RAW] out_time_ms=6747697958\n[STDOUT RAW] out_time=01:52:27.697958\n[STDOUT RAW] dup_frames=0\n[STDOUT RAW] drop_frames=0\n[STDOUT RAW] speed= 198x\n[STDOUT RAW] progress=continue\n[STDOUT RAW] bitrate= 127.9kbits/s\n[STDOUT RAW] total_size=109838336\n[STDOUT RAW] out_time_us=6870289958\n[STDOUT RAW] out_time_ms=6870289958\n[STDOUT RAW] out_time=01:54:30.289958\n[STDERR RAW] size=  105216KiB time=01:52:27.69 bitrate= 127.7kbits/s speed= 198x\n[STDOUT RAW] dup_frames=0\n[STDOUT RAW] drop_frames=0\n[STDOUT RAW] speed= 199x\n[STDOUT RAW] progress=continue\n[STDERR RAW] size=  107264KiB time=01:54:30.28 bitrate= 127.9kbits/s speed= 199x\n[STDOUT RAW] bitrate= 127.8kbits/s\n[STDOUT RAW] total_size=111673344\n[STDOUT RAW] out_time_us=6988777958\n[STDOUT RAW] out_time_ms=6988777958\n[STDOUT RAW] out_time=01:56:28.777958\n[STDOUT RAW] dup_frames=0\n[STDOUT RAW] drop_frames=0\n[STDOUT RAW] speed= 199x\n[STDOUT RAW] progress=continue\n[STDERR RAW] size=  109056KiB time=01:56:28.77 bitrate= 127.8kbits/s speed= 199x\n[STDOUT RAW] bitrate= 128.0kbits/s\n[STDOUT RAW] total_size=113770496\n[STDOUT RAW] out_time_us=7110937958\n[STDOUT RAW] out_time_ms=7110937958\n[STDOUT RAW] out_time=01:58:30.937958\n[STDOUT RAW] dup_frames=0\n[STDOUT RAW] drop_frames=0\n[STDOUT RAW] speed=200x\n[STDOUT RAW] progress=continue\n[STDERR RAW] size=  111104KiB time=01:58:30.93 bitrate= 128.0kbits/s speed=200x\n[STDOUT RAW] bitrate= 127.8kbits/s\n[STDOUT RAW] total_size=115605504\n[STDOUT RAW] out_time_us=7237681958\n[STDOUT RAW] out_time_ms=7237681958\n[STDOUT RAW] out_time=02:00:37.681958\n[STDOUT RAW] dup_frames=0\n[STDOUT RAW] drop_frames=0\n[STDOUT RAW] speed= 201x\n[STDOUT RAW] progress=continue\n[STDOUT RAW] bitrate= 127.8kbits/s\n[STDERR RAW] size=  112896KiB time=02:00:37.68 bitrate= 127.8kbits/s speed= 201x\n[STDOUT RAW] total_size=117440512\n[STDOUT RAW] out_time_us=7348921958\n[STDOUT RAW] out_time_ms=7348921958\n[STDOUT RAW] out_time=02:02:28.921958\n[STDOUT RAW] dup_frames=0\n[STDOUT RAW] drop_frames=0\n[STDOUT RAW] speed= 201x\n[STDOUT RAW] progress=continue\n[STDERR RAW] size=  114688KiB time=02:02:28.92 bitrate= 127.8kbits/s speed= 201x\n[STDOUT RAW] bitrate= 128.0kbits/s\n[STDOUT RAW] total_size=119275520\n[STDOUT RAW] out_time_us=7457329958\n[STDOUT RAW] out_time_ms=7457329958\n[STDOUT RAW] out_time=02:04:17.329958\n[STDOUT RAW] dup_frames=0\n[STDOUT RAW] drop_frames=0\n[STDOUT RAW] speed= 201x\n[STDOUT RAW] progress=continue\n[STDOUT RAW] bitrate= 127.7kbits/s\n[STDERR RAW] size=  116480KiB time=02:04:17.32 bitrate= 128.0kbits/s speed= 201x\n[STDOUT RAW] total_size=121110528\n[STDOUT RAW] out_time_us=7585921958\n[STDOUT RAW] out_time_ms=7585921958\n[STDOUT RAW] out_time=02:06:25.921958\n[STDOUT RAW] dup_frames=0\n[STDOUT RAW] drop_frames=0\n[STDOUT RAW] speed= 202x\n[STDOUT RAW] progress=continue\n[STDERR RAW] size=  118272KiB time=02:06:25.92 bitrate= 127.7kbits/s speed= 202x\n[STDOUT RAW] bitrate= 127.8kbits/s\n[STDOUT RAW] total_size=123207680\n[STDOUT RAW] out_time_us=7710769958\n[STDOUT RAW] out_time_ms=7710769958\n[STDOUT RAW] out_time=02:08:30.769958\n[STDOUT RAW] dup_frames=0\n[STDOUT RAW] drop_frames=0\n[STDOUT RAW] speed= 202x\n[STDOUT RAW] progress=continue\n[STDERR RAW] size=  120320KiB time=02:08:30.76 bitrate= 127.8kbits/s speed= 202x\n[STDOUT RAW] bitrate= 127.8kbits/s\n[STDOUT RAW] total_size=125042688\n[STDOUT RAW] out_time_us=7827817958\n[STDOUT RAW] out_time_ms=7827817958\n[STDOUT RAW] out_time=02:10:27.817958\n[STDOUT RAW] dup_frames=0\n[STDOUT RAW] drop_frames=0\n[STDOUT RAW] speed= 202x\n[STDOUT RAW] progress=continue\n[STDERR RAW] size=  122112KiB time=02:10:27.81 bitrate= 127.8kbits/s speed= 202x\n[STDOUT RAW] bitrate= 127.8kbits/s\n[STDOUT RAW] total_size=126877696\n[STDOUT RAW] out_time_us=7939177958\n[STDOUT RAW] out_time_ms=7939177958\n[STDOUT RAW] out_time=02:12:19.177958\n[STDOUT RAW] dup_frames=0\n[STDOUT RAW] drop_frames=0\n[STDOUT RAW] speed= 202x\n[STDOUT RAW] progress=continue\n[STDERR RAW] size=  123904KiB time=02:12:19.17 bitrate= 127.8kbits/s speed= 202x\n[STDOUT RAW] bitrate= 127.9kbits/s\n[STDOUT RAW] total_size=128974848\n[STDOUT RAW] out_time_us=8068441958\n[STDOUT RAW] out_time_ms=8068441958\n[STDOUT RAW] out_time=02:14:28.441958\n[STDOUT RAW] dup_frames=0\n[STDOUT RAW] drop_frames=0\n[STDOUT RAW] speed= 203x\n[STDOUT RAW] progress=continue\n[STDERR RAW] size=  125952KiB time=02:14:28.44 bitrate= 127.9kbits/s speed= 203x\n[STDOUT RAW] bitrate= 127.9kbits/s\n[STDOUT RAW] total_size=130809856\n[STDOUT RAW] out_time_us=8180761958\n[STDOUT RAW] out_time_ms=8180761958\n[STDOUT RAW] out_time=02:16:20.761958\n[STDOUT RAW] dup_frames=0\n[STDOUT RAW] drop_frames=0\n[STDOUT RAW] speed= 203x\n[STDOUT RAW] progress=continue\n[STDERR RAW] size=  127744KiB time=02:16:20.76 bitrate= 127.9kbits/s speed= 203x\n[STDOUT RAW] bitrate= 127.8kbits/s\n[STDOUT RAW] total_size=132644864\n[STDOUT RAW] out_time_us=8300953958\n[STDOUT RAW] out_time_ms=8300953958\n[STDOUT RAW] out_time=02:18:20.953958\n[STDOUT RAW] dup_frames=0\n[STDOUT RAW] drop_frames=0\n[STDOUT RAW] speed= 204x\n[STDOUT RAW] progress=continue\n[STDERR RAW] size=  129536KiB time=02:18:20.95 bitrate= 127.8kbits/s speed= 204x\n[STDOUT RAW] bitrate= 127.8kbits/s\n[STDOUT RAW] total_size=134742016\n[STDOUT RAW] out_time_us=8433073958\n[STDOUT RAW] out_time_ms=8433073958\n[STDOUT RAW] out_time=02:20:33.073958\n[STDOUT RAW] dup_frames=0\n[STDOUT RAW] drop_frames=0\n[STDOUT RAW] speed= 204x\n[STDOUT RAW] progress=continue\n[STDERR RAW] size=  131584KiB time=02:20:33.07 bitrate= 127.8kbits/s speed= 204x\n[STDOUT RAW] bitrate= 127.8kbits/s\n[STDOUT RAW] total_size=136577024\n[STDOUT RAW] out_time_us=8552569958\n[STDOUT RAW] out_time_ms=8552569958\n[STDOUT RAW] out_time=02:22:32.569958\n[STDOUT RAW] dup_frames=0\n[STDOUT RAW] drop_frames=0\n[STDOUT RAW] speed= 205x\n[STDOUT RAW] progress=continue\n[STDERR RAW] size=  133376KiB time=02:22:32.56 bitrate= 127.8kbits/s speed= 205x\n[STDOUT RAW] bitrate= 128.0kbits/s\n[STDOUT RAW] total_size=138674176\n[STDOUT RAW] out_time_us=8668105958\n[STDOUT RAW] out_time_ms=8668105958\n[STDOUT RAW] out_time=02:24:28.105958\n[STDOUT RAW] dup_frames=0\n[STDOUT RAW] drop_frames=0\n[STDOUT RAW] speed= 205x\n[STDOUT RAW] progress=continue\n[STDERR RAW] size=  135424KiB time=02:24:28.10 bitrate= 128.0kbits/s speed= 205x\n[STDOUT RAW] bitrate= 127.9kbits/s\n[STDOUT RAW] total_size=140509184\n[STDOUT RAW] out_time_us=8789569958\n[STDOUT RAW] out_time_ms=8789569958\n[STDOUT RAW] out_time=02:26:29.569958\n[STDOUT RAW] dup_frames=0\n[STDOUT RAW] drop_frames=0\n[STDOUT RAW] speed= 205x\n[STDOUT RAW] progress=continue\n[STDERR RAW] size=  137216KiB time=02:26:29.56 bitrate= 127.9kbits/s speed= 205x\n[STDOUT RAW] bitrate= 127.9kbits/s\n[STDOUT RAW] total_size=142344192\n[STDOUT RAW] out_time_us=8903185958\n[STDOUT RAW] out_time_ms=8903185958\n[STDOUT RAW] out_time=02:28:23.185958\n[STDOUT RAW] dup_frames=0\n[STDOUT RAW] drop_frames=0\n[STDOUT RAW] speed= 205x\n[STDOUT RAW] progress=continue\n[STDERR RAW] size=  139008KiB time=02:28:23.18 bitrate= 127.9kbits/s speed= 205x\n[STDOUT RAW] bitrate= 127.8kbits/s\n[STDOUT RAW] total_size=144179200\n[STDOUT RAW] out_time_us=9027721958\n[STDOUT RAW] out_time_ms=9027721958\n[STDOUT RAW] out_time=02:30:27.721958\n[STDOUT RAW] dup_frames=0\n[STDOUT RAW] drop_frames=0\n[STDOUT RAW] speed= 206x\n[STDOUT RAW] progress=continue\n[STDERR RAW] size=  140800KiB time=02:30:27.72 bitrate= 127.8kbits/s speed= 206x\n[STDOUT RAW] bitrate= 128.0kbits/s\n[STDOUT RAW] total_size=146276352\n[STDOUT RAW] out_time_us=9142705958\n[STDOUT RAW] out_time_ms=9142705958\n[STDOUT RAW] out_time=02:32:22.705958\n[STDOUT RAW] dup_frames=0\n[STDOUT RAW] drop_frames=0\n[STDOUT RAW] speed= 206x\n[STDOUT RAW] progress=continue\n[STDERR RAW] size=  142848KiB time=02:32:22.70 bitrate= 128.0kbits/s speed= 206x\n[STDOUT RAW] bitrate= 127.9kbits/s\n[STDOUT RAW] total_size=148111360\n[STDOUT RAW] out_time_us=9260809958\n[STDOUT RAW] out_time_ms=9260809958\n[STDOUT RAW] out_time=02:34:20.809958\n[STDOUT RAW] dup_frames=0\n[STDOUT RAW] drop_frames=0\n[STDOUT RAW] speed= 206x\n[STDOUT RAW] progress=continue\n[STDERR RAW] size=  144640KiB time=02:34:20.80 bitrate= 127.9kbits/s speed= 206x\n[STDOUT RAW] bitrate= 127.9kbits/s\n[STDOUT RAW] total_size=149946368\n[STDOUT RAW] out_time_us=9376417958\n[STDOUT RAW] out_time_ms=9376417958\n[STDOUT RAW] out_time=02:36:16.417958\n[STDOUT RAW] dup_frames=0\n[STDOUT RAW] drop_frames=0\n[STDOUT RAW] speed= 207x\n[STDOUT RAW] progress=continue\n[STDERR RAW] size=  146432KiB time=02:36:16.41 bitrate= 127.9kbits/s speed= 207x\n[STDOUT RAW] bitrate= 127.9kbits/s\n[STDOUT RAW] total_size=151781376\n[STDOUT RAW] out_time_us=9492625958\n[STDOUT RAW] out_time_ms=9492625958\n[STDOUT RAW] out_time=02:38:12.625958\n[STDOUT RAW] dup_frames=0\n[STDOUT RAW] drop_frames=0\n[STDOUT RAW] speed= 207x\n[STDOUT RAW] progress=continue\n[STDERR RAW] size=  148224KiB time=02:38:12.62 bitrate= 127.9kbits/s speed= 207x\n[STDOUT RAW] bitrate= 127.8kbits/s\n[STDOUT RAW] total_size=153616384\n[STDOUT RAW] out_time_us=9617545958\n[STDOUT RAW] out_time_ms=9617545958\n[STDOUT RAW] out_time=02:40:17.545958\n[STDOUT RAW] dup_frames=0\n[STDOUT RAW] drop_frames=0\n[STDOUT RAW] speed= 207x\n[STDOUT RAW] progress=continue\n[STDERR RAW] size=  150016KiB time=02:40:17.54 bitrate= 127.8kbits/s speed= 207x\n[STDOUT RAW] bitrate= 127.8kbits/s\n[STDOUT RAW] total_size=155451392\n[STDOUT RAW] out_time_us=9732217958\n[STDOUT RAW] out_time_ms=9732217958\n[STDOUT RAW] out_time=02:42:12.217958\n[STDOUT RAW] dup_frames=0\n[STDOUT RAW] drop_frames=0\n[STDOUT RAW] speed= 207x\n[STDOUT RAW] progress=continue\n[STDERR RAW] size=  151808KiB time=02:42:12.21 bitrate= 127.8kbits/s speed= 207x\n[STDOUT RAW] bitrate= 127.8kbits/s\n[STDOUT RAW] total_size=157286400\n[STDOUT RAW] out_time_us=9846865958\n[STDOUT RAW] out_time_ms=9846865958\n[STDOUT RAW] out_time=02:44:06.865958\n[STDOUT RAW] dup_frames=0\n[STDOUT RAW] drop_frames=0\n[STDOUT RAW] speed= 207x\n[STDOUT RAW] progress=continue\n[STDERR RAW] size=  153600KiB time=02:44:06.86 bitrate= 127.8kbits/s speed= 207x\n[STDOUT RAW] bitrate= 127.8kbits/s\n[STDOUT RAW] total_size=159383552\n[STDOUT RAW] out_time_us=9976801958\n[STDOUT RAW] out_time_ms=9976801958\n[STDOUT RAW] out_time=02:46:16.801958\n[STDOUT RAW] dup_frames=0\n[STDOUT RAW] drop_frames=0\n[STDOUT RAW] speed= 208x\n[STDOUT RAW] progress=continue\n[STDERR RAW] size=  155648KiB time=02:46:16.80 bitrate= 127.8kbits/s speed= 208x\n[STDOUT RAW] bitrate= 128.0kbits/s\n[STDOUT RAW] total_size=161497772\n[STDOUT RAW] out_time_us=10093530667\n[STDOUT RAW] out_time_ms=10093530667\n[STDOUT RAW] out_time=02:48:13.530667\n[STDOUT RAW] dup_frames=0\n[STDOUT RAW] drop_frames=0\n[STDERR RAW] size=  157713KiB time=02:48:13.53 bitrate= 128.0kbits/s speed= 208x\n[STDOUT RAW] speed= 208x\n[STDOUT RAW] progress=end\n[ConversionWorker] STDERR pipe closed signal received.\n[ConversionWorker] Detected 'progress=end' for 高冷番外.wav\n[ConversionWorker] STDOUT pipe closed signal received.\n[ConversionWorker] Process finished and both stream pipes closed. Exiting loop.\n[ConversionWorker] Waiting for reader threads to join...\n[ConversionWorker] FFmpeg process ended. Return code: 0\n[ConversionWorker] Closing FFmpeg log file.\n